<svg xmlns="http://www.w3.org/2000/svg" viewBox="0 0 64 64">
  <defs>
    <linearGradient id="bg" x1="0%" y1="0%" x2="100%" y2="100%">
      <stop offset="0%" stop-color="#6366f1"/>
      <stop offset="100%" stop-color="#8b5cf6"/>
    </linearGradient>
    <linearGradient id="radar" x1="0%" y1="0%" x2="100%" y2="100%">
      <stop offset="0%" stop-color="#c4b5fd"/>
      <stop offset="100%" stop-color="#ffffff"/>
    </linearGradient>
  </defs>
  <rect width="64" height="64" rx="14" fill="url(#bg)"/>
  <circle cx="32" cy="32" r="6" fill="url(#radar)"/>
  <path d="M22 22a14 14 0 0 1 20 0" stroke="#c4b5fd" stroke-width="2.5" fill="none" stroke-linecap="round" opacity="0.9"/>
  <path d="M18 18a20 20 0 0 1 28 0" stroke="#c4b5fd" stroke-width="2.5" fill="none" stroke-linecap="round" opacity="0.6"/>
  <path d="M14 14a26 26 0 0 1 36 0" stroke="#c4b5fd" stroke-width="2.5" fill="none" stroke-linecap="round" opacity="0.3"/>
  <path d="M42 42a14 14 0 0 1 -20 0" stroke="#c4b5fd" stroke-width="2.5" fill="none" stroke-linecap="round" opacity="0.9"/>
  <path d="M46 46a20 20 0 0 1 -28 0" stroke="#c4b5fd" stroke-width="2.5" fill="none" stroke-linecap="round" opacity="0.6"/>
  <path d="M50 50a26 26 0 0 1 -36 0" stroke="#c4b5fd" stroke-width="2.5" fill="none" stroke-linecap="round" opacity="0.3"/>
</svg>
